<svg width="299" height="345" viewBox="0 0 299 345" fill="none" xmlns="http://www.w3.org/2000/svg">
<g clip-path="url(#clip0_3459_13)">
<path d="M60.8077 192.052C60.8077 179.5 52.5294 173.546 42.0479 169.406L30.1422 164.098C22.8986 161.249 14.9986 158.278 14.9986 150.121C14.9986 142.487 21.5968 137.824 31.4329 137.824C40.2342 137.824 46.6989 140.807 52.2623 145.714L57.9592 138.726C51.7505 132.516 42.4373 128.243 31.8223 128.243C15.6551 128.243 4.00527 137.813 4.00527 150.755C4.00527 163.697 13.8414 169.262 22.2533 172.622L34.5484 178.053C43.0938 181.681 49.692 184.263 49.692 193.321C49.692 201.089 42.9603 206.653 31.3216 206.653C21.7414 206.653 12.9512 202.513 6.47543 196.17L0.0107422 203.67C7.64374 211.304 18.3811 216.223 30.8098 216.223C49.4472 216.223 60.83 205.484 60.83 192.019L60.8077 192.052Z" fill="white"/>
<path d="M75.5957 171.866C75.5957 199.687 89.048 216.257 108.197 216.257C127.347 216.257 140.799 199.698 140.799 171.866C140.799 144.034 127.347 128.254 108.197 128.254C89.048 128.254 75.5957 144.434 75.5957 171.866ZM129.55 171.866C129.55 193.611 121.015 206.675 108.197 206.675C95.3792 206.675 86.8449 193.599 86.8449 171.866C86.8449 150.132 95.3792 137.835 108.197 137.835C121.015 137.835 129.55 150.522 129.55 171.866Z" fill="white"/>
<path d="M160.427 129.812V214.699H181.902C206.87 214.699 220.723 198.907 220.723 171.866C220.723 144.824 206.881 129.812 181.39 129.812H160.427ZM209.463 171.866C209.463 193.343 199.882 205.774 180.611 205.774H171.298V138.737H180.611C199.894 138.737 209.463 150.51 209.463 171.866Z" fill="white"/>
<path d="M257.987 129.812L229.391 214.699H240.517L248.607 188.948H279.406L287.35 214.699H298.989L270.393 129.812H257.975H257.987ZM276.691 180.156H251.377L255.405 167.348C258.387 157.9 261.102 148.585 263.817 138.748H264.34C266.933 148.585 269.77 157.9 272.752 167.348L276.702 180.156H276.691Z" fill="white"/>
<path d="M149.032 49.3653C206.447 49.3653 255.338 65.8575 291.622 97.2727L297.319 91.23C263.516 59.8259 213.534 33.5742 149.032 33.5742C84.5301 33.5742 34.5484 59.8259 0.745117 91.23L6.44205 97.2727C42.7266 65.8575 91.629 49.3653 149.032 49.3653Z" fill="white"/>
<path d="M149.033 13.877C201.073 13.877 245.391 28.3661 278.282 55.9866L283.445 50.6783C252.802 23.0801 207.505 0 149.033 0C90.5617 0 45.2644 23.0801 14.6211 50.6783L19.7839 55.9866C52.6748 28.3772 96.993 13.877 149.033 13.877Z" fill="white"/>
<path d="M149.032 295.635C91.6179 295.635 42.7266 279.143 6.44205 247.728L0.745117 253.77C34.5484 285.174 84.5301 311.426 149.032 311.426C213.534 311.426 263.516 285.163 297.319 253.77L291.622 247.728C255.338 279.143 206.436 295.635 149.032 295.635V295.635Z" fill="white"/>
<path d="M149.033 331.112C96.993 331.112 52.6748 316.623 19.7839 289.002L14.6211 294.311C45.2644 321.909 90.5617 344.989 149.033 344.989C207.505 344.989 252.802 321.909 283.445 294.311L278.282 289.002C245.391 316.612 201.073 331.112 149.033 331.112V331.112Z" fill="white"/>
</g>
<defs>
<clipPath id="clip0_3459_13">
<rect width="299" height="345" rx="10" fill="white"/>
</clipPath>
</defs>
</svg>
